<?xml version="1.0" encoding="utf-8"?>
<!-- Generator: Adobe Illustrator 24.0.1, SVG Export Plug-In . SVG Version: 6.00 Build 0)  -->
<svg version="1.1" id="Layer_1" xmlns="http://www.w3.org/2000/svg" xmlns:xlink="http://www.w3.org/1999/xlink" x="0px" y="0px"
	 viewBox="0 0 312.7 300.7" style="enable-background:new 0 0 312.7 300.7;" xml:space="preserve">
<style type="text/css">
	.st0{fill:#615CD8;}
</style>
<title>medicine</title>
<path class="st0" d="M228.5,0h-0.8c-29.8,0-56.2,15.8-71.4,39.1C141.2,15.8,114.8,0,84.9,0h-0.8C37.6,0.4,0,38.3,0,84.9
	c0,27.8,12.2,67.3,35.9,99.7c45.3,61.9,120.4,116,120.4,116s75.2-54.1,120.4-116c23.8-32.5,35.9-71.9,35.9-99.7
	C312.7,38.3,275.1,0.4,228.5,0z M217.8,189.4c-7,0-13.2-4.3-15.7-10.8h-17.8c-2.4,0-4.5-1.6-5.3-3.8l-5.5-16.5l-17.3,60.6
	c-0.7,2.4-2.9,4-5.4,4h-0.3c-2.6-0.1-4.8-2.1-5.2-4.6l-17.9-107.5l-13.1,63.6c-0.6,2.5-2.8,4.2-5.4,4.2H83.7
	c-3.1,0.1-5.7-2.3-5.8-5.3c-0.1-3.1,2.3-5.7,5.3-5.8c0.2,0,0.3,0,0.5,0h20.7L123,81.9c0.7-3,3.8-4.9,6.8-4.1
	c2.2,0.5,3.9,2.4,4.2,4.6l18.3,109.6l15.5-54.2c0.7-2.3,2.8-4,5.2-4h0.1c2.4,0,4.5,1.5,5.3,3.8l9.9,29.8h13.6
	c2.9-8.8,12.4-13.6,21.2-10.7c8.8,2.9,13.6,12.4,10.7,21.2C231.5,184.8,225,189.5,217.8,189.4L217.8,189.4z"/>
</svg>
